#!OML:ASF H:\Not Pregnant\Project 1\Capture day 1\Session 1\non-pregnant.ASF
:FULLY-SPECIFIED
:DEGREES
834
root 0.997193 15.6898 23.8124 15.3161 -29.3227 -12.6911
lowerback -1.06722 1.44009 11.5396
upperback -7.46041 2.27202 1.2404
thorax -6.96069 0.423753 -5.22802
lowerneck 35.8575 -11.3932 -28.3863
upperneck -26.1778 -21.4883 45.9693
head -3.83499 -15.081 28.3664
rclavicle -6.41578e-014 -6.36111e-015
rhumerus -24.3521 32.5662 -107.935
rradius 36.9272
rwrist 19.4768
rhand -16.4825 0.796497
rfingers 7.12502
rthumb 9.73464 -28.9585
lclavicle -6.41578e-014 -6.36111e-015
lhumerus -36.6013 -7.51202 92.973
lradius 42.0132
lwrist 32.0376
lhand -17.7011 -19.5406
lfingers 7.12502
lthumb 8.55878 10.266
rfemur -23.0723 7.35042 36.5084
rtibia 28.9964
rfoot -13.5994 15.8748
rtoes -6.38435
lfemur -23.6706 9.6976 -5.81038
ltibia 65.7292
lfoot -11.995 -6.22535
ltoes -39.6741
835
root 0.98104 15.6868 23.8515 15.3851 -29.7538 -12.7213
lowerback -1.07218 1.45295 11.5224
upperback -7.46379 2.28764 1.25318
thorax -6.95919 0.432414 -5.20518
lowerneck 35.6705 -11.2987 -28.4776
upperneck -25.8573 -21.4125 45.9259
head -3.73962 -15.0269 28.2797
rclavicle -9.62118e-014 -3.97569e-016
rhumerus -24.2632 33.9205 -108.366
rradius 37.6341
rwrist 19.3908
rhand -16.8602 1.14194
rfingers 7.12502
rthumb 9.37027 -28.6298
lclavicle -9.62118e-014 -3.97569e-016
lhumerus -36.3605 -7.55827 92.9767
lradius 41.9663
lwrist 31.9556
lhand -17.7271 -19.4825
lfingers 7.12502
lthumb 8.53375 10.3251
rfemur -22.94 7.51753 36.4634
rtibia 29.0862
rfoot -13.7307 16.135
rtoes -6.16507
lfemur -24.3866 9.4958 -5.79498
ltibia 65.8396
lfoot -12.4494 -5.2685
ltoes -40.3507
836
root 0.964662 15.685 23.8919 15.456 -30.1836 -12.7411
lowerback -1.09188 1.46093 11.4978
upperback -7.46657 2.29396 1.25907
thorax -6.94991 0.437146 -5.18486
lowerneck 35.466 -11.2103 -28.5583
upperneck -25.5195 -21.3381 45.883
head -3.63717 -14.974 28.1822
rclavicle 2.99668e-014 5.08889e-014
rhumerus -24.206 35.1864 -108.78
rradius 38.34
rwrist 19.3074
rhand -17.1468 1.50808
rfingers 7.12502
rthumb 9.09367 -28.2759
lclavicle 2.99668e-014 5.08889e-014
lhumerus -36.1727 -7.58778 92.9636
lradius 41.9435
lwrist 31.8814
lhand -17.7428 -19.4252
lfingers 7.12502
lthumb 8.51853 10.3829
rfemur -22.802 7.68083 36.4035
rtibia 29.1593
rfoot -13.8566 16.4025
rtoes -5.94412
lfemur -25.0861 9.25103 -5.78204
ltibia 65.8491
lfoot -12.8102 -4.30261
ltoes -40.8938
837
root 0.94837 15.6846 23.9338 15.5188 -30.6119 -12.743
lowerback -1.12374 1.46993 11.4706
upperback -7.47003 2.29919 1.25163
thorax -6.93403 0.441397 -5.17691
lowerneck 35.269 -11.1325 -28.6243
upperneck -25.1781 -21.2735 45.8383
head -3.53347 -14.9273 28.0761
rclavicle -9.96905e-014 -2.62396e-014
rhumerus -24.1891 36.3323 -109.173
rradius 39.0544
rwrist 19.2348
rhand -17.3139 1.85839
rfingers 7.12502
rthumb 8.93247 -27.9325
lclavicle -9.96905e-014 -2.62396e-014
lhumerus -36.043 -7.65671 92.9567
lradius 41.9401
lwrist 31.8488
lhand -17.7737 -19.3763
lfingers 7.12502
lthumb 8.48869 10.4331
rfemur -22.6526 7.82572 36.3224
rtibia 29.2149
rfoot -13.9818 16.6853
rtoes -5.73723
lfemur -25.7598 8.95568 -5.77997
ltibia 65.7588
lfoot -13.0908 -3.3294
ltoes -41.3084
838
root 0.932056 15.6851 23.9768 15.579 -31.0339 -12.7322
lowerback -1.16693 1.48706 11.4478
upperback -7.48721 2.31407 1.23199
thorax -6.92453 0.448778 -5.18447
lowerneck 35.1238 -11.0495 -28.6966
upperneck -24.8401 -21.2193 45.7971
head -3.43468 -14.8888 27.9888
rclavicle -6.09772e-014 3.97569e-016
rhumerus -24.2431 37.3476 -109.553
rradius 39.7856
rwrist 19.1467
rhand -17.3894 2.18886
rfingers 7.12502
rthumb 8.85961 -27.6052
lclavicle -6.09772e-014 3.97569e-016
lhumerus -35.9973 -7.80029 92.9833
lradius 41.9566
lwrist 31.8883
lhand -17.8345 -19.3488
lfingers 7.12502
lthumb 8.43009 10.4629
rfemur -22.4982 7.95877 36.2258
rtibia 29.2553
rfoot -14.0977 16.9776
rtoes -5.51137
lfemur -26.4113 8.60966 -5.77895
ltibia 65.5735
lfoot -13.3047 -2.3622
ltoes -41.5927
839
root 0.915731 15.6865 24.0208 15.6354 -31.4485 -12.7088
lowerback -1.21873 1.50907 11.4263
upperback -7.51192 2.3343 1.20202
thorax -6.91703 0.457922 -5.20382
lowerneck 35.0094 -10.968 -28.7678
upperneck -24.5086 -21.1747 45.7596
head -3.33888 -14.8577 27.9118
rclavicle -4.94974e-014 3.18055e-014
rhumerus -24.3618 38.251 -109.92
rradius 40.5426
rwrist 19.0281
rhand -17.3758 2.49475
rfingers 7.12502
rthumb 8.87272 -27.2987
lclavicle -4.94974e-014 3.18055e-014
lhumerus -36.0221 -7.98948 93.0327
lradius 41.9992
lwrist 31.9717
lhand -17.9126 -19.3429
lfingers 7.12502
lthumb 8.35469 10.4719
rfemur -22.3401 8.08079 36.1147
rtibia 29.2838
rfoot -14.2086 17.2741
rtoes -5.28909
lfemur -27.0391 8.20884 -5.77758
ltibia 65.2993
lfoot -13.4657 -1.37423
ltoes -41.9406
840
root 0.899506 15.6884 24.0656 15.6952 -31.8593 -12.6822
lowerback -1.27558 1.53774 11.412
upperback -7.54823 2.36331 1.16569
thorax -6.91754 0.46978 -5.23412
lowerneck 34.9293 -10.8865 -28.8387
upperneck -24.1816 -21.1386 45.7201
head -3.24776 -14.8323 27.8411
rclavicle -6.16232e-014 2.54444e-014
rhumerus -24.5489 39.0299 -110.281
rradius 41.3155
rwrist 18.8874
rhand -17.2754 2.76983
rfingers 7.12502
rthumb 8.96964 -27.0195
lclavicle -6.16232e-014 2.54444e-014
lhumerus -36.1166 -8.23514 93.1135
lradius 42.0556
lwrist 32.1073
lhand -18.018 -19.3642
lfingers 7.12502
lthumb 8.25298 10.4546
rfemur -22.1828 8.20114 35.9966
rtibia 29.304
rfoot -14.3085 17.5735
rtoes -5.05276
lfemur -27.6457 7.75724 -5.76548
ltibia 64.9448
lfoot -13.5782 -0.39498
ltoes -42.2494
841
root 0.883457 15.6903 24.1109 15.7621 -32.2711 -12.6586
lowerback -1.32953 1.56963 11.4003
upperback -7.59301 2.39762 1.12914
thorax -6.92811 0.483138 -5.26638
lowerneck 34.8657 -10.807 -28.9076
upperneck -23.8613 -21.1078 45.6777
head -3.16032 -14.81 27.7716
rclavicle -1.99282e-014 -1.59028e-015
rhumerus -24.8019 39.6992 -110.639
rradius 42.1065
rwrist 18.7161
rhand -17.1017 3.01095
rfingers 7.12502
rthumb 9.13724 -26.7711
lclavicle -1.99282e-014 -1.59028e-015
lhumerus -36.2697 -8.50208 93.2147
lradius 42.1292
lwrist 32.267
lhand -18.1155 -19.3961
lfingers 7.12502
lthumb 8.15887 10.4264
rfemur -22.0289 8.33053 35.8769
rtibia 29.3171
rfoot -14.4012 17.8677
rtoes -4.83272
lfemur -28.2356 7.26004 -5.73514
ltibia 64.5206
lfoot -13.6458 0.54851
ltoes -42.4728
842
root 0.867366 15.6922 24.1565 15.8354 -32.6915 -12.6416
lowerback -1.38135 1.60237 11.3878
upperback -7.63434 2.43315 1.09369
thorax -6.93592 0.497474 -5.29713
lowerneck 34.7885 -10.7374 -28.9687
upperneck -23.5473 -21.0829 45.6396
head -3.06954 -14.7912 27.6982
rclavicle -5.14355e-014 -3.06128e-014
rhumerus -25.0921 40.273 -110.992
rradius 42.9023
rwrist 18.5209
rhand -16.8782 3.22919
rfingers 7.12502
rthumb 9.35283 -26.5433
lclavicle -5.14355e-014 -3.06128e-014
lhumerus -36.4515 -8.76426 93.3147
lradius 42.2107
lwrist 32.4201
lhand -18.1657 -19.4185
lfingers 7.12502
lthumb 8.11039 10.4058
rfemur -21.8748 8.47642 35.758
rtibia 29.3261
rfoot -14.4834 18.1589
rtoes -4.59167
lfemur -28.8023 6.72568 -5.6807
ltibia 64.0336
lfoot -13.6805 1.44595
ltoes -42.629
843
root 0.851334 15.6937 24.2023 15.9152 -33.1249 -12.6343
lowerback -1.4286 1.63755 11.3782
upperback -7.66686 2.47209 1.05728
thorax -6.93597 0.514113 -5.33056
lowerneck 34.6857 -10.6814 -29.0131
upperneck -23.2361 -21.0618 45.6049
head -2.9748 -14.7745 27.6145
rclavicle -1.09332e-015 -7.95139e-016
rhumerus -25.4043 40.7573 -111.332
rradius 43.6984
rwrist 18.2865
rhand -16.5991 3.42531
rfingers 7.12502
rthumb 9.62217 -26.3349
lclavicle -1.09332e-015 -7.95139e-016
lhumerus -36.6459 -9.00899 93.4025
lradius 42.296
lwrist 32.5302
lhand -18.1917 -19.4452
lfingers 7.12502
lthumb 8.08532 10.3801
rfemur -21.7202 8.63962 35.6425
rtibia 29.3335
rfoot -14.5578 18.4486
rtoes -4.32539
lfemur -29.3446 6.16173 -5.59952
ltibia 63.4917
lfoot -13.6954 2.29816
ltoes -42.7364
844
root 0.835432 15.6947 24.2485 16.0027 -33.576 -12.6426
lowerback -1.47091 1.6763 11.3757
upperback -7.68729 2.51599 1.02235
thorax -6.92459 0.533991 -5.36658
lowerneck 34.5533 -10.639 -29.0462
upperneck -22.935 -21.0455 45.5792
head -2.87483 -14.7606 27.5268
rclavicle 3.73218e-014 1.66979e-014
rhumerus -25.7335 41.1734 -111.66
rradius 44.49
rwrist 18.0078
rhand -16.3014 3.60485
rfingers 7.12502
rthumb 9.90935 -26.1419
lclavicle 3.73218e-014 1.66979e-014
lhumerus -36.8497 -9.21496 93.4744
lradius 42.3872
lwrist 32.5996
lhand -18.2024 -19.4994
lfingers 7.12502
lthumb 8.07499 10.3263
rfemur -21.5624 8.82183 35.5346
rtibia 29.3434
rfoot -14.6309 18.739
rtoes -4.04849
lfemur -29.8556 5.58279 -5.48746
ltibia 62.9003
lfoot -13.7154 3.10891
ltoes -42.8146
845
root 0.820098 15.6951 24.2954 16.0965 -34.0308 -12.6636
lowerback -1.50666 1.70784 11.3812
upperback -7.6981 2.5511 0.994047
thorax -6.90814 0.549954 -5.39967
lowerneck 34.387 -10.6031 -29.0744
upperneck -22.6347 -21.0278 45.5574
head -2.76935 -14.7446 27.4334
rclavicle 6.1822e-014 5.32743e-014
rhumerus -26.0939 41.5496 -111.99
rradius 45.268
rwrist 17.6844
rhand -15.9891 3.76206
rfingers 7.12502
rthumb 10.2106 -25.9701
lclavicle 6.1822e-014 5.32743e-014
lhumerus -37.0606 -9.35986 93.5258
lradius 42.4778
lwrist 32.6237
lhand -18.1595 -19.535
lfingers 7.12502
lthumb 8.11643 10.2891
rfemur -21.4041 9.01052 35.4322
rtibia 29.3557
rfoot -14.7 19.0319
rtoes -3.73368
lfemur -30.3404 4.98035 -5.34623
ltibia 62.2631
lfoot -13.7735 3.84741
ltoes -42.7497
846
root 0.805484 15.695 24.343 16.1918 -34.4814 -12.6852
lowerback -1.53552 1.73696 11.3918
upperback -7.71201 2.58438 0.967806
thorax -6.89945 0.564169 -5.43362
lowerneck 34.2274 -10.5657 -29.1065
upperneck -22.3449 -21.0108 45.538
head -2.66694 -14.7289 27.3485
rclavicle -3.96078e-014 -4.05521e-014
rhumerus -26.5101 41.8649 -112.325
rradius 46.0335
rwrist 17.3229
rhand -15.6799 3.89089
rfingers 7.12502
rthumb 10.509 -25.8264
lclavicle -3.96078e-014 -4.05521e-014
lhumerus -37.2976 -9.46534 93.5757
lradius 42.5601
lwrist 32.6287
lhand -18.082 -19.5757
lfingers 7.12502
lthumb 8.19115 10.2455
rfemur -21.2493 9.19725 35.3254
rtibia 29.3695
rfoot -14.7696 19.325
rtoes -3.38933
lfemur -30.8044 4.34834 -5.18602
ltibia 61.5812
lfoot -13.8897 4.49816
ltoes -42.5124
847
root 0.791604 15.6948 24.3918 16.285 -34.9279 -12.7097
lowerback -1.56854 1.76133 11.4152
upperback -7.71425 2.61029 0.941325
thorax -6.8766 0.575264 -5.47438
lowerneck 34.0593 -10.5328 -29.1314
upperneck -22.0764 -20.9915 45.5274
head -2.56955 -14.7126 27.2731
rclavicle -4.24405e-014 1.43125e-014
rhumerus -26.9598 42.1512 -112.66
rradius 46.7842
rwrist 16.9187
rhand -15.3991 3.98578
rfingers 7.12502
rthumb 10.7798 -25.7176
lclavicle -4.24405e-014 1.43125e-014
lhumerus -37.5371 -9.51577 93.6059
lradius 42.6349
lwrist 32.607
lhand -17.946 -19.5958
lfingers 7.12502
lthumb 8.32241 10.2202
rfemur -21.0856 9.37494 35.2171
rtibia 29.3761
rfoot -14.8424 19.6214
rtoes -3.04283
lfemur -31.238 3.68622 -5.00323
ltibia 60.8538
lfoot -14.0839 5.05082
ltoes -42.1257
848
root 0.778355 15.6948 24.4416 16.377 -35.3682 -12.7364
lowerback -1.60107 1.78159 11.4495
upperback -7.70984 2.63062 0.914781
thorax -6.84757 0.58357 -5.52104
lowerneck 33.8914 -10.5052 -29.1486
upperneck -21.834 -20.9718 45.5239
head -2.47946 -14.697 27.2071
rclavicle -4.25896e-014 1.86858e-014
rhumerus -27.4445 42.4015 -112.997
rradius 47.5048
rwrist 16.4959
rhand -15.1628 4.05619
rfingers 7.12502
rthumb 11.0077 -25.6352
lclavicle -4.25896e-014 1.86858e-014
lhumerus -37.7816 -9.50234 93.614
lradius 42.6931
lwrist 32.555
lhand -17.7431 -19.5966
lfingers 7.12502
lthumb 8.51826 10.2116
rfemur -20.9122 9.545 35.1062
rtibia 29.3695
rfoot -14.9121 19.922
rtoes -2.67378
lfemur -31.6429 2.98977 -4.79592
ltibia 60.0795
lfoot -14.3474 5.48792
ltoes -41.6412
